<svg width="100" height="100" viewBox="0 0 100 100" fill="none" xmlns="http://www.w3.org/2000/svg">
<path d="M100 50.0088C100 44.1951 91.704 38.6855 78.9849 35.2688C81.9201 23.8919 80.6156 14.8404 74.8675 11.9425C73.5426 11.2627 71.9935 10.9407 70.3017 10.9407V14.9298C71.2393 14.9298 71.9935 15.0908 72.6254 15.3949C75.3975 16.7902 76.6001 22.103 75.6625 28.9364C75.4382 30.6179 75.0713 32.3888 74.6229 34.1955C70.6278 33.3369 66.2658 32.675 61.6796 32.2457C58.9278 28.9364 56.0742 25.9311 53.2002 23.3016C59.8451 17.8814 66.0823 14.9119 70.3221 14.9119V10.9229C64.7167 10.9229 57.3787 14.429 49.9592 20.511C42.5397 14.4647 35.2018 10.9944 29.5964 10.9944V14.9835C33.8157 14.9835 40.0734 17.9351 46.7183 23.3194C43.8647 25.949 41.011 28.9364 38.3 32.2457C33.6934 32.675 29.3314 33.3369 25.3363 34.2134C24.8675 32.4246 24.521 30.6894 24.2764 29.0258C23.3184 22.1925 24.5006 16.8797 27.2523 15.4665C27.8638 15.1445 28.6588 15.0014 29.5964 15.0014V11.0123C27.8842 11.0123 26.3351 11.3343 24.9898 12.014C19.2621 14.9119 17.978 23.9455 20.9336 35.2867C8.2552 38.7213 0 44.213 0 50.0088C0 55.8225 8.29596 61.3321 21.0151 64.7488C18.0799 76.1257 19.3844 85.1772 25.1325 88.0751C26.4574 88.7548 28.0065 89.0768 29.7187 89.0768C35.3241 89.0768 42.662 85.5707 50.0815 79.4887C57.501 85.535 64.839 89.0053 70.4443 89.0053C72.1565 89.0053 73.7057 88.6833 75.051 88.0035C80.7786 85.1056 82.0628 76.072 79.1072 64.7309C91.7448 61.3142 100 55.8046 100 50.0088V50.0088ZM73.4611 38.0773C72.7069 40.3849 71.7693 42.764 70.7093 45.1432C69.8736 43.7121 68.9971 42.281 68.0391 40.85C67.1015 39.4189 66.1027 38.0236 65.104 36.6641C67.9984 37.0398 70.7909 37.5049 73.4611 38.0773ZM64.1256 57.1283C62.5357 59.5433 60.905 61.833 59.2132 63.9617C56.1761 64.1942 53.0982 64.3194 50 64.3194C46.9221 64.3194 43.8443 64.1942 40.8276 63.9796C39.1358 61.8508 37.4847 59.579 35.8948 57.182C34.3457 54.8386 32.9393 52.4595 31.6551 50.0625C32.9189 47.6654 34.3457 45.2684 35.8744 42.925C37.4643 40.5101 39.095 38.2204 40.7868 36.0917C43.8239 35.8591 46.9018 35.7339 50 35.7339C53.0779 35.7339 56.1557 35.8591 59.1724 36.0738C60.8642 38.2025 62.5153 40.4743 64.1052 42.8714C65.6543 45.2147 67.0607 47.5939 68.3449 49.9909C67.0607 52.3879 65.6543 54.785 64.1256 57.1283ZM70.7093 54.8029C71.81 57.1999 72.7477 59.5969 73.5222 61.9224C70.852 62.4948 68.0391 62.9778 65.1243 63.3535C66.1231 61.9761 67.1219 60.5629 68.0595 59.1139C68.9972 57.6829 69.8736 56.2339 70.7093 54.8029ZM50.0408 73.8897C48.1451 72.1724 46.2495 70.2583 44.3742 68.1654C46.2087 68.237 48.084 68.2906 49.9796 68.2906C51.8956 68.2906 53.7913 68.2549 55.6461 68.1654C53.8117 70.2583 51.916 72.1724 50.0408 73.8897ZM34.8757 63.3535C31.9812 62.9778 29.1887 62.5127 26.5185 61.9403C27.2727 59.6327 28.2104 57.2536 29.2703 54.8744C30.106 56.3055 30.9825 57.7365 31.9405 59.1676C32.8985 60.5987 33.8769 61.994 34.8757 63.3535ZM49.9389 26.1279C51.8345 27.8452 53.7301 29.7592 55.6054 31.8522C53.7709 31.7806 51.8956 31.7269 50 31.7269C48.084 31.7269 46.1883 31.7627 44.3335 31.8522C46.168 29.7592 48.0636 27.8452 49.9389 26.1279ZM34.8553 36.6641C33.8565 38.0415 32.8577 39.4547 31.9201 40.9036C30.9825 42.3347 30.106 43.7658 29.2703 45.1968C28.1696 42.7998 27.232 40.4028 26.4574 38.0773C29.1276 37.5228 31.9405 37.0398 34.8553 36.6641V36.6641ZM16.4085 59.0603C9.19283 56.3591 4.52507 52.8173 4.52507 50.0088C4.52507 47.2003 9.19283 43.6406 16.4085 40.9573C18.1614 40.2954 20.0775 39.7051 22.0546 39.1506C23.2165 42.6567 24.7452 46.3059 26.6408 50.0446C24.7656 53.7653 23.2572 57.3967 22.1158 60.8849C20.0978 60.3303 18.1818 59.7221 16.4085 59.0603ZM27.3746 84.6227C24.6025 83.2274 23.3999 77.9145 24.3375 71.0812C24.5618 69.3997 24.9287 67.6288 25.3771 65.822C29.3722 66.6807 33.7342 67.3426 38.3204 67.7719C41.0722 71.0812 43.9258 74.0864 46.7998 76.716C40.1549 82.1362 33.9177 85.1056 29.6779 85.1056C28.7607 85.0878 27.9861 84.9268 27.3746 84.6227V84.6227ZM75.7236 70.9918C76.6816 77.8251 75.4994 83.1379 72.7476 84.5511C72.1362 84.8731 71.3412 85.0162 70.4036 85.0162C66.1843 85.0162 59.9266 82.0646 53.2817 76.6802C56.1354 74.0507 58.989 71.0633 61.7 67.754C66.3066 67.3247 70.6686 66.6628 74.6637 65.7863C75.1325 67.593 75.4994 69.3282 75.7236 70.9918V70.9918ZM83.5711 59.0603C81.8182 59.7221 79.9022 60.3125 77.925 60.867C76.7631 57.3609 75.2344 53.7117 73.3388 49.973C75.214 46.2522 76.7224 42.6209 77.8638 39.1327C79.8818 39.6872 81.7978 40.2954 83.5915 40.9573C90.8072 43.6584 95.4749 47.2003 95.4749 50.0088C95.4545 52.8173 90.7868 56.377 83.5711 59.0603V59.0603Z" fill="#61DAFB"/>
<path d="M49.9797 58.184C55.1243 58.184 59.2949 54.5239 59.2949 50.009C59.2949 45.494 55.1243 41.834 49.9797 41.834C44.8351 41.834 40.6646 45.494 40.6646 50.009C40.6646 54.5239 44.8351 58.184 49.9797 58.184Z" fill="#61DAFB"/>
</svg>
