<svg width="24" height="24" viewBox="0 0 24 24" fill="none" xmlns="http://www.w3.org/2000/svg">
<path fill-rule="evenodd" clip-rule="evenodd" d="M2.02148 12.669C2.02148 10.2898 3.89542 8.34788 6.24772 8.23886L6.45648 8.23403H7.38948C7.8037 8.23403 8.13948 8.56981 8.13948 8.98403C8.13948 9.36372 7.85733 9.67752 7.49125 9.72718L7.38948 9.73403H6.45648C4.89358 9.73403 3.61575 10.956 3.52647 12.4966L3.52148 12.669L3.52148 17.544C3.52148 19.1061 4.74362 20.3838 6.28406 20.473L6.45648 20.478H17.5865C19.1493 20.478 20.4272 19.2561 20.5165 17.7164L20.5215 17.544V12.659C20.5215 11.1017 19.3039 9.82799 17.7693 9.73899L17.5975 9.73403H16.6545C16.2403 9.73403 15.9045 9.39824 15.9045 8.98403C15.9045 8.60433 16.1866 8.29054 16.5527 8.24087L16.6545 8.23403H17.5975C19.9687 8.23403 21.9046 10.1008 22.0164 12.4447L22.0215 12.659V17.544C22.0215 19.9225 20.1474 21.8642 17.7952 21.9732L17.5865 21.978H6.45648C4.07743 21.978 2.13535 20.1043 2.02631 17.7527L2.02148 17.544V12.669ZM11.4797 1.67182C11.6162 1.52928 11.8084 1.44053 12.0214 1.44053C12.2365 1.44053 12.4304 1.53107 12.5672 1.67612L15.4687 4.58959C15.761 4.88308 15.76 5.35795 15.4665 5.65025C15.1997 5.91596 14.783 5.93932 14.4898 5.72086L14.4059 5.64807L12.7714 4.008L12.7714 14.2315C12.7714 14.6457 12.4356 14.9815 12.0214 14.9815C11.6417 14.9815 11.3279 14.6994 11.2782 14.3333L11.2714 14.2315L11.2714 4.00632L9.63779 5.64798C9.37212 5.91483 8.95551 5.93997 8.66142 5.72277L8.57714 5.65034C8.31028 5.38466 8.28514 4.96805 8.50234 4.67396L8.57478 4.58968L11.4797 1.67182Z" fill="#200E32"/>
</svg>
